<svg viewBox="0 0 89 104" fill="none" xmlns="http://www.w3.org/2000/svg">
<path d="M30.6244 90.5849L36.8284 49.108L41.3924 48.9075L49.1965 87.905L30.6244 90.5849Z" fill="#47409B" stroke="#2F2881"/>
<path d="M69.5494 77.4332L45.1064 46.5422L48.9682 41.9538L81.6844 62.8868L69.5494 77.4332Z" fill="#DA4444" stroke="#B62E2E"/>
<path d="M50.723 90.7809L38.9155 49.2635L47.1676 44.7871L69.3937 82.0683L50.723 90.7809Z" fill="white" stroke="#C0C0C0"/>
<path d="M30.5 4.5L32.5 1.5L38.5 3.5L39.5 1L45.5 4.5L47.5 2L53 6L56 4.5L60 10.5H64.5L66.5 17.5H70.5L71.5 24.5L75.5 27L74 34L77 35L75 41.5L77 44L73 48.5L75 50.5L70.5 57L71.5 59.5L66 63L66.5 65.5L60.5 67.5L61 70.5L54.5 71.5V73.5L47 74.5L46 76.5L40 74.5L38.5 77L32 74.5L30 76L25.5 72.5L22.5 73.5L19 69L16.5 70L13 64H10.5L9 58L6 57.5L6.5 51.5L3 50.5L5 44L1 42L4.5 35L1.5 33L5 28L3.5 26L8 21L7.5 18L12.5 15.5L12 12.5L17.5 11.5L18 7.5L24 7V4.5H30.5Z" fill="#DA4444" stroke="#B62E2E"/>
<path d="M34.2185 15.6184L39.3179 12L44.7815 15.6184L51.3377 14.8947L55.3444 20.3224L61.1722 22.1316L62.2649 27.9211L65.9073 31.9013L64.8146 38.7763L67 44.9276L62.2649 49.6316L62.9934 55.4211L57.1656 56.8684L55.3444 62.6579H49.1523L44.7815 67L39.3179 64.4671L32.3974 67L29.4834 62.6579H22.9272L22.1987 56.8684L16.3709 55.4211V49.6316L12 44.9276L14.5497 38.7763L12 31.9013L17.4636 27.9211L17.8278 22.1316L24.7483 20.3224L26.9338 14.8947L34.2185 15.6184Z" fill="white"/>
<path d="M36.1391 25.3026L39.3841 23L42.8609 25.3026L47.0331 24.8421L49.5828 28.2961L53.2914 29.4474L53.9868 33.1316L56.3046 35.6645L55.6093 40.0395L57 43.9539L53.9868 46.9474L54.4503 50.6316L50.7417 51.5526L49.5828 55.2368H45.6424L42.8609 58L39.3841 56.3882L34.9801 58L33.1258 55.2368H28.9536L28.4901 51.5526L24.7815 50.6316V46.9474L22 43.9539L23.6225 40.0395L22 35.6645L25.4768 33.1316L25.7086 29.4474L30.1126 28.2961L31.5033 24.8421L36.1391 25.3026Z" fill="#47409B" stroke="#2F2881"/>
</svg>
